:SAMPLES-PER-SECOND 30
:FULLY-SPECIFIED
:DEGREES
323
root  34.79207557 36.55115563 -14.35628425 8.668268204 -4.883013725 2.948283672
lowerback  -8.340708733 -0.4460408986 -0.6212149858
upperback  -3.721649885 -0.1009680033 -3.282010078
thorax  0.8185899854 0.1009410024 -3.047369957
lowerneck  -8.027279854 -13.02579975 -9.764989853
upperneck  12.44810009 -17.67770004 10.03009987
head  6.880010128 -8.246080399 3.039380074
lclavicle  0 -4.497500157e-015 -2.743230041e-014
lhumerus  -46.54159927 30.14229965 64.34780121
lradius  -0.009674543515 -6.507048965e-006 30.0766983
lwrist  3.192251654e-007 -3.790274832e-007 -27.97430038
lhand  -0 -36.66989899 -10.61670017
lfingers  90 7.125020027 -90
lthumb  94.69613868 -25.46168404 100.8177315
rclavicle  0 -4.497500157e-015 -2.743230041e-014
rhumerus  -54.90000153 -48.41669846 -40.85689926
rradius  -5.16745672e-007 2.214343908e-008 34.89080048
rwrist  0.0003490542294 -0.002273720223 -141.6779938
rhand  -1.775211159e-031 5.976439953 -6.850729942
rfingers  -90 -7.125020027 -90
rthumb  -84.3371337 -9.21793115 -58.24221566
rfemur  -10.41284084 16.10462952 13.26239491
rtibia  -0.006726440042 -0.6413645744 18.23408127
rfoot  1.443526626 -21.37257957 -35.54891586
rtoes  3.979890484 19.61592256 -101.7083841
lfemur  -4.869220257 -15.44140053 -21.08731842
ltibia  4.629223347 -0.183720246 10.66416359
lfoot  0.2160440683 -23.06206322 36.05999756
ltoes  -8.565133015 -18.14139439 -115.814107
324
root  34.79220173 36.55533978 -14.3562392 8.675579071 -4.891383171 2.934227467
lowerback  -8.340587616 -0.4207689464 -0.6144511104
upperback  -3.714349985 -0.06830489635 -3.283699989
thorax  0.8297420144 0.1169369966 -3.050060034
lowerneck  -8.065099716 -13.0376997 -9.76982975
upperneck  12.46609974 -17.6916008 10.0241003
head  6.893509865 -8.251560211 3.033489943
lclavicle  0 -4.497500157e-015 -2.743230041e-014
lhumerus  -46.49779892 30.15279961 64.40370178
lradius  -0.009674543515 -6.507048965e-006 30.08300018
lwrist  3.192251654e-007 -3.790274832e-007 -27.97909927
lhand  -4.402590858e-031 -36.67309952 -10.61380005
lfingers  90 7.125020027 -90
lthumb  94.69699428 -25.45868575 100.8208257
rclavicle  0 -4.497500157e-015 -2.743230041e-014
rhumerus  -55.98920059 -49.24689865 -39.61460114
rradius  -5.16745672e-007 2.214343908e-008 34.30730057
rwrist  0.0003490542294 -0.002273720223 -140.3170013
rhand  -1.775478597e-031 6.058320045 -6.753769875
rfingers  -90 -7.125020027 -90
rthumb  -84.26462037 -9.305458452 -58.15394139
rfemur  -10.40164375 16.11104584 13.26647949
rtibia  0.007658584043 -0.6533186436 18.1913662
rfoot  1.464336753 -21.38727951 -35.53980255
rtoes  3.992120078 19.61353132 -101.7448149
lfemur  -4.929493427 -15.41523933 -21.04592705
ltibia  4.581895828 -0.1706709415 10.75649357
lfoot  0.2281442136 -23.13142014 36.04450226
ltoes  -8.579709697 -18.13468671 -115.8609311
325
root  34.79241198 36.55509648 -14.35480643 8.680810928 -4.900564671 2.942222834
lowerback  -8.338560104 -0.3815619946 -0.5751492381
upperback  -3.707669973 -0.02012990043 -3.286760092
thorax  0.8387060165 0.1401499957 -3.071130037
lowerneck  -8.043459892 -13.05319977 -9.774840355
upperneck  12.39820004 -17.71180153 10.03989983
head  6.872039795 -8.263389587 3.039139986
lclavicle  0 -4.497500157e-015 -2.743230041e-014
lhumerus  -46.42819977 30.11170006 64.48770142
lradius  -0.009674543515 -6.507048965e-006 30.07875252
lwrist  3.192251654e-007 -3.790274832e-007 -28.00289917
lhand  -4.407447509e-031 -36.75780106 -10.6008997
lfingers  90 7.125020027 -90
lthumb  94.73388122 -25.44312943 100.9102259
rclavicle  0 -4.497500157e-015 -2.743230041e-014
rhumerus  -56.67229843 -49.5705986 -39.0666008
rradius  -5.16745672e-007 2.214343908e-008 33.96049881
rwrist  0.0003490542294 -0.002273720223 -139.6999969
rhand  -1.77423454e-031 5.667210102 -6.921160221
rfingers  -90 -7.125020027 -90
rthumb  -84.45199075 -9.138467838 -58.5500707
rfemur  -10.39276218 16.11370659 13.24675941
rtibia  0.01525977533 -0.6732242703 18.1684494
rfoot  1.461326003 -21.41671562 -35.56394958
rtoes  4.00608947 19.61079051 -101.7864337
lfemur  -4.922896385 -15.4289608 -21.06492233
ltibia  4.596437931 -0.178136453 10.74199963
lfoot  0.2352132946 -23.11302376 36.06420135
ltoes  -8.567433033 -18.14033695 -115.8214941
326
root  34.79215066 36.55173835 -14.35349081 8.6971035 -4.898132801 2.950968504
lowerback  -8.332421303 -0.3717799783 -0.5698043108
upperback  -3.693079948 -0.009873449802 -3.275160074
thorax  0.8509169817 0.1443939954 -3.06114006
lowerneck  -8.065329552 -13.06040001 -9.802619934
upperneck  12.38519955 -17.72339821 10.09000015
head  6.880219936 -8.267505646 3.055569887
lclavicle  0 -4.497500157e-015 -2.743230041e-014
lhumerus  -46.37519836 30.09300041 64.56590271
lradius  -0.009674543515 -6.507048965e-006 30.0773983
lwrist  3.192251654e-007 -3.790274832e-007 -27.90000153
lhand  -0 -36.77349854 -10.6395998
lfingers  90 7.125020027 -90
lthumb  94.74932795 -25.48056537 100.9304803
rclavicle  0 -4.497500157e-015 -2.743230041e-014
rhumerus  -57.41360092 -49.93470001 -38.45110321
rradius  -5.16745672e-007 2.214343908e-008 33.68450165
rwrist  0.0003490542294 -0.002273720223 -139.3329926
rhand  -1.77381431e-031 5.528739929 -6.935200214
rfingers  -90 -7.125020027 -90
rthumb  -84.49372396 -9.117800826 -58.68641378
rfemur  -10.4043541 16.11615372 13.22580338
rtibia  0.01778884605 -0.6974572539 18.15946007
rfoot  1.465453744 -21.45220757 -35.55868912
rtoes  3.980068494 19.61588781 -101.7089144
lfemur  -4.948151588 -15.40949249 -21.06812477
ltibia  4.597341061 -0.176131174 10.74627495
lfoot  0.236490652 -23.11738586 36.04420471
ltoes  -8.522143482 -18.16109392 -115.6761106
